<?xml version="1.0" encoding="utf-8"?>
<!-- Generator: Adobe Illustrator 16.0.1, SVG Export Plug-In . SVG Version: 6.00 Build 0)  -->
<!DOCTYPE svg PUBLIC "-//W3C//DTD SVG 1.1//EN" "http://www.w3.org/Graphics/SVG/1.1/DTD/svg11.dtd">
<svg version="1.1" id="Layer_1" xmlns="http://www.w3.org/2000/svg" xmlns:xlink="http://www.w3.org/1999/xlink" x="0px" y="0px"
	 width="145px" height="83.873px" viewBox="0 0 145 83.873" enable-background="new 0 0 145 83.873" xml:space="preserve">
<g>
	<g>
		<polygon fill="#FFFFFF" points="92.531,19.003 90.353,15.407 86.433,0 76.472,8.061 72.5,8.062 68.528,8.061 58.568,0 
			54.647,15.407 52.47,19.003 57.662,21.007 55.484,25.543 60.656,26.554 68.374,40.062 72.5,40.062 76.625,40.062 84.343,26.554 
			89.515,25.543 87.337,21.007 		"/>
	</g>
	<g>
		<path fill="#FFFFFF" d="M0,76.16h2.258l1.346,4.462l1.487-4.484h1.84l1.487,4.484l1.344-4.462h2.215l-2.578,7.769H7.537
			l-1.555-4.44l-1.542,4.44H2.578L0,76.16z"/>
		<path fill="#FFFFFF" d="M15.423,80.039v-0.022c0-2.215,1.785-4.01,4.165-4.01s4.143,1.773,4.143,3.988v0.021
			c0,2.215-1.785,4.011-4.164,4.011C17.187,84.027,15.423,82.253,15.423,80.039z M21.549,80.039v-0.022
			c0-1.113-0.805-2.082-1.982-2.082c-1.168,0-1.951,0.947-1.951,2.061v0.021c0,1.113,0.805,2.082,1.973,2.082
			C20.768,82.099,21.549,81.151,21.549,80.039z"/>
		<path fill="#FFFFFF" d="M28.146,76.16h1.995l3.173,4.077V76.16h2.115v7.713h-1.873l-3.295-4.231v4.231h-2.115V76.16z"/>
		<path fill="#FFFFFF" d="M40.1,76.16h2.976c2.755,0,4.353,1.587,4.353,3.812v0.022c0,2.225-1.619,3.878-4.396,3.878H40.1V76.16z
			 M43.108,81.979c1.278,0,2.126-0.706,2.126-1.95v-0.022c0-1.233-0.848-1.95-2.126-1.95h-0.87v3.923H43.108z"/>
		<path fill="#FFFFFF" d="M51.833,76.16h6.204v1.818h-4.089v1.168h3.703v1.686h-3.703v1.224h4.144v1.817h-6.259V76.16z"/>
		<path fill="#FFFFFF" d="M62.486,76.16h3.646c1.18,0,1.994,0.309,2.513,0.837c0.452,0.441,0.683,1.036,0.683,1.797v0.021
			c0,1.18-0.628,1.962-1.586,2.369l1.84,2.688h-2.469l-1.553-2.336h-0.022h-0.915v2.336h-2.137V76.16z M66.034,79.862
			c0.728,0,1.146-0.352,1.146-0.914v-0.022c0-0.606-0.44-0.915-1.156-0.915h-1.4v1.852H66.034z"/>
		<path fill="#FFFFFF" d="M79.55,76.16h2.258l1.346,4.462l1.488-4.484h1.84l1.486,4.484l1.344-4.462h2.217l-2.578,7.769h-1.863
			l-1.555-4.44l-1.541,4.44h-1.863L79.55,76.16z"/>
		<path fill="#FFFFFF" d="M94.974,80.039v-0.022c0-2.215,1.785-4.01,4.164-4.01c2.381,0,4.143,1.773,4.143,3.988v0.021
			c0,2.215-1.785,4.011-4.164,4.011S94.974,82.253,94.974,80.039z M101.101,80.039v-0.022c0-1.113-0.807-2.082-1.984-2.082
			c-1.168,0-1.951,0.947-1.951,2.061v0.021c0,1.113,0.805,2.082,1.973,2.082C100.318,82.099,101.101,81.151,101.101,80.039z"/>
		<path fill="#FFFFFF" d="M107.699,76.16h2.137v5.841h3.736v1.872h-5.873V76.16z"/>
		<path fill="#FFFFFF" d="M115.904,76.16h2.391l1.752,4.882l1.752-4.882h2.346l-3.127,7.769h-1.984L115.904,76.16z"/>
		<path fill="#FFFFFF" d="M128.197,76.16h6.203v1.818h-4.088v1.168h3.703v1.686h-3.703v1.224h4.145v1.817h-6.26V76.16z"/>
		<path fill="#FFFFFF" d="M138.267,82.728l1.189-1.422c0.762,0.605,1.609,0.926,2.502,0.926c0.572,0,0.883-0.198,0.883-0.529v-0.021
			c0-0.319-0.254-0.496-1.301-0.738c-1.643-0.375-2.91-0.838-2.91-2.424v-0.021c0-1.434,1.137-2.469,2.986-2.469
			c1.312,0,2.336,0.353,3.174,1.024l-1.068,1.51c-0.705-0.496-1.477-0.761-2.16-0.761c-0.518,0-0.771,0.221-0.771,0.496v0.021
			c0,0.354,0.266,0.508,1.332,0.75c1.775,0.386,2.877,0.959,2.877,2.402v0.021c0,1.576-1.244,2.512-3.117,2.512
			C140.515,84.005,139.214,83.576,138.267,82.728z"/>
	</g>
</g>
</svg>
